<svg width="140" height="140" viewBox="0 0 140 140" fill="none" xmlns="http://www.w3.org/2000/svg">
<g clip-path="url(#clip0_1531_502)">
<path d="M70 98C85.464 98 98 85.464 98 70C98 54.536 85.464 42 70 42C54.536 42 42 54.536 42 70C42 85.464 54.536 98 70 98Z" fill="#46C761"/>
<path d="M70 0C86.667 1.98755e-07 102.787 5.94709 115.462 16.7716C128.135 27.5961 136.531 42.5876 139.138 59.0496C141.746 75.5118 138.394 92.3636 129.685 106.575C120.976 120.786 107.483 131.424 91.6314 136.574L86.6558 121.262C98.8617 117.296 109.252 109.105 115.957 98.1624C122.663 87.22 125.244 74.2441 123.236 61.5682C121.229 48.8924 114.764 37.349 105.006 29.0141C95.2462 20.6793 82.8338 16.1 70 16.1V0Z" fill="url(#paint0_linear_1531_502)"/>
<path d="M123.902 69.9996C123.902 99.7678 99.7698 123.9 70.0016 123.9C40.2334 123.9 16.1016 99.7678 16.1016 69.9996C16.1016 40.2315 40.2334 16.0996 70.0016 16.0996C99.7698 16.0996 123.902 40.2315 123.902 69.9996ZM18.2026 69.9996C18.2026 98.6072 41.3938 121.799 70.0016 121.799C98.6092 121.799 121.801 98.6072 121.801 69.9996C121.801 41.3918 98.6092 18.2007 70.0016 18.2007C41.3938 18.2007 18.2026 41.3918 18.2026 69.9996Z" fill="url(#paint1_linear_1531_502)"/>
<path d="M69.9992 18.1992C62.5114 18.1992 55.1127 19.8226 48.3127 22.9574C41.5126 26.0922 35.4731 30.664 30.6102 36.3578C25.7472 42.0516 22.1765 48.732 20.144 55.9386C18.1116 63.1452 17.6656 70.7069 18.837 78.1024C20.0083 85.4979 22.7691 92.5518 26.929 98.7776C31.0891 105.003 36.5494 110.253 42.9338 114.166C49.3182 118.078 56.4749 120.56 63.9107 121.44C71.3467 122.32 78.885 121.578 86.0061 119.264L79.6032 99.5581C75.3304 100.946 70.8077 101.392 66.3461 100.864C61.8846 100.336 57.5906 98.8469 53.76 96.4991C49.9293 94.152 46.6532 91.002 44.1571 87.2661C41.6611 83.5309 40.0046 79.2987 39.3018 74.8614C38.599 70.4241 38.8666 65.8869 40.0861 61.5628C41.3056 57.2388 43.448 53.2306 46.3658 49.8144C49.2835 46.3981 52.9072 43.655 56.9873 41.7741C61.0673 39.8932 65.5065 38.9192 69.9992 38.9192V18.1992Z" fill="url(#paint2_linear_1531_502)"/>
<path d="M58.4539 61.0559C57.8566 61.0559 57.3377 60.9439 56.8971 60.7199C56.4566 60.4959 56.1169 60.1861 55.8779 59.7903C55.639 59.3946 55.5195 58.9391 55.5195 58.4239V55.7471C55.5195 55.1125 55.6465 54.5861 55.9003 54.1679C56.1617 53.7423 56.5163 53.425 56.9643 53.2159C57.4198 53.0069 57.9387 52.9023 58.5211 52.9023C59.1035 52.9023 59.6075 52.9994 60.0331 53.1935C60.4662 53.3877 60.7985 53.6677 61.0299 54.0335C61.2689 54.3994 61.3883 54.8362 61.3883 55.3439H59.9323C59.9323 55.0303 59.8241 54.7578 59.6075 54.5263C59.391 54.2949 59.0289 54.1791 58.5211 54.1791C58.0209 54.1791 57.6326 54.3098 57.3563 54.5711C57.0875 54.8325 56.9531 55.1946 56.9531 55.6575V56.4639H57.1547C57.2817 56.3146 57.4758 56.1727 57.7371 56.0383C57.9985 55.9039 58.3793 55.8367 58.8795 55.8367C59.335 55.8367 59.7531 55.9338 60.1339 56.1279C60.5222 56.3221 60.8358 56.6058 61.0747 56.9791C61.3137 57.345 61.4331 57.7893 61.4331 58.3119V58.4463C61.4331 58.9615 61.3099 59.417 61.0635 59.8127C60.8171 60.201 60.4699 60.5071 60.0219 60.7311C59.5739 60.9477 59.0513 61.0559 58.4539 61.0559ZM58.4763 59.7791C58.9467 59.7791 59.3163 59.6559 59.5851 59.4095C59.8614 59.1631 59.9995 58.8346 59.9995 58.4239V58.3343C59.9995 58.0581 59.9361 57.8191 59.8091 57.6175C59.6897 57.4159 59.5142 57.2591 59.2827 57.1471C59.0587 57.0351 58.7899 56.9791 58.4763 56.9791C58.1702 56.9791 57.9014 57.0351 57.6699 57.1471C57.4385 57.2591 57.2593 57.4159 57.1323 57.6175C57.0129 57.8191 56.9531 58.0581 56.9531 58.3343V58.4239C56.9531 58.8346 57.0875 59.1631 57.3563 59.4095C57.6326 59.6559 58.0059 59.7791 58.4763 59.7791ZM65.2766 61.0559C64.6643 61.0559 64.1342 60.9477 63.6862 60.7311C63.2456 60.5146 62.9059 60.2085 62.667 59.8127C62.428 59.417 62.3086 58.9578 62.3086 58.4351V58.3231H63.7646V58.4239C63.7646 58.7973 63.8878 59.1183 64.1342 59.3871C64.388 59.6485 64.7614 59.7791 65.2542 59.7791C65.747 59.7791 66.124 59.6485 66.3854 59.3871C66.6542 59.1183 66.7886 58.7711 66.7886 58.3455V58.2335C66.7886 57.8154 66.6542 57.4831 66.3854 57.2367C66.124 56.9903 65.7955 56.8671 65.3998 56.8671C65.1832 56.8671 65.004 56.897 64.8622 56.9567C64.7203 57.0165 64.6046 57.0911 64.515 57.1807C64.4254 57.2703 64.3507 57.3599 64.291 57.4495H62.555V53.0591H67.9086V54.3583H63.9886V56.2735H64.1902C64.2648 56.1765 64.3656 56.0831 64.4926 55.9935C64.6195 55.9039 64.7838 55.8293 64.9854 55.7695C65.187 55.7098 65.4259 55.6799 65.7022 55.6799C66.1651 55.6799 66.587 55.777 66.9678 55.9711C67.3486 56.1653 67.651 56.4527 67.875 56.8335C68.1064 57.2069 68.2222 57.6698 68.2222 58.2223V58.3567C68.2222 58.9093 68.1027 59.3871 67.8638 59.7903C67.6323 60.1935 67.2963 60.5071 66.8558 60.7311C66.4152 60.9477 65.8888 61.0559 65.2766 61.0559ZM61.7687 75.0447L60.9175 74.3615L66.9431 66.9135L67.7943 67.5967L61.7687 75.0447ZM66.4951 75.0111C65.9276 75.0111 65.4834 74.862 65.1623 74.5631C64.8412 74.2572 64.6807 73.8428 64.6807 73.3199V73.2415C64.6807 72.7116 64.8412 72.2972 65.1623 71.9983C65.4834 71.6924 65.9276 71.5391 66.4951 71.5391C67.0476 71.5391 67.4882 71.6924 67.8167 71.9983C68.1452 72.2972 68.3095 72.7116 68.3095 73.2415V73.3199C68.3095 73.8428 68.149 74.2572 67.8279 74.5631C67.5068 74.862 67.0626 75.0111 66.4951 75.0111ZM66.4951 74.0927C66.7116 74.0927 66.8796 74.0255 66.9991 73.8911C67.126 73.7567 67.1895 73.581 67.1895 73.3647V73.1855C67.1895 72.9692 67.126 72.7935 66.9991 72.6591C66.8796 72.5247 66.7116 72.4575 66.4951 72.4575C66.2786 72.4575 66.1068 72.5247 65.9799 72.6591C65.8604 72.7935 65.8007 72.9692 65.8007 73.1855V73.3647C65.8007 73.581 65.8604 73.7567 65.9799 73.8911C66.1068 74.0255 66.2786 74.0927 66.4951 74.0927ZM62.2167 70.4191C61.6492 70.4191 61.205 70.27 60.8839 69.9711C60.5628 69.665 60.4023 69.2506 60.4023 68.7279V68.6495C60.4023 68.1194 60.5628 67.705 60.8839 67.4063C61.205 67.1002 61.6492 66.9471 62.2167 66.9471C62.7692 66.9471 63.2098 67.1002 63.5383 67.4063C63.8668 67.705 64.0311 68.1194 64.0311 68.6495V68.7279C64.0311 69.2506 63.8706 69.665 63.5495 69.9711C63.2284 70.27 62.7842 70.4191 62.2167 70.4191ZM62.2167 69.5007C62.4332 69.5007 62.6012 69.4335 62.7207 69.2991C62.8476 69.1647 62.9111 68.9893 62.9111 68.7727V68.5935C62.9111 68.377 62.8476 68.2015 62.7207 68.0671C62.6012 67.9327 62.4332 67.8655 62.2167 67.8655C62.0002 67.8655 61.8284 67.9327 61.7015 68.0671C61.582 68.2015 61.5223 68.377 61.5223 68.5935V68.7727C61.5223 68.9893 61.582 69.1647 61.7015 69.2991C61.8284 69.4335 62.0002 69.5007 62.2167 69.5007Z" fill="#F7F8F9"/>
<path d="M62.3251 80.6005L62.4847 80.5081C62.5407 80.5697 62.5948 80.6369 62.6471 80.7097C62.7012 80.7825 62.7488 80.8546 62.7899 80.9253C62.8328 80.996 62.8636 81.0618 62.8823 81.1213L62.7115 81.2277C62.691 81.1696 62.6602 81.1045 62.6191 81.0317C62.5799 80.9589 62.5342 80.8854 62.4819 80.8105C62.4315 80.7356 62.3792 80.6656 62.3251 80.6005ZM61.3535 80.4465L61.5019 80.3289C61.5654 80.3681 61.6288 80.415 61.6923 80.4689C61.7576 80.5214 61.8183 80.5746 61.8743 80.6285C61.9322 80.681 61.9779 80.7293 62.0115 80.7741L61.8547 80.9085C61.8211 80.8616 61.7763 80.8112 61.7203 80.7573C61.6662 80.7013 61.6064 80.646 61.5411 80.5921C61.4776 80.5361 61.4151 80.4878 61.3535 80.4465ZM60.9867 80.5249H61.2079V81.1017C61.2079 81.143 61.22 81.1696 61.2443 81.1829C61.2704 81.1962 61.3283 81.2025 61.4179 81.2025C61.4347 81.2025 61.4618 81.2025 61.4991 81.2025C61.5383 81.2025 61.5831 81.2025 61.6335 81.2025C61.6839 81.2025 61.7343 81.2025 61.7847 81.2025C61.8351 81.2025 61.8818 81.2025 61.9247 81.2025C61.9676 81.2025 61.9994 81.2025 62.0199 81.2025C62.0666 81.2025 62.1011 81.1962 62.1235 81.1829C62.1478 81.1696 62.1646 81.143 62.1739 81.1017C62.1832 81.0604 62.1907 80.9988 62.1963 80.9169C62.2112 80.9281 62.2308 80.9386 62.2551 80.9477C62.2794 80.9568 62.3036 80.9666 62.3279 80.9757C62.3522 80.9834 62.3746 80.989 62.3951 80.9925C62.3839 81.0989 62.3671 81.1808 62.3447 81.2389C62.3223 81.2984 62.2868 81.339 62.2383 81.3593C62.1898 81.3817 62.1226 81.3929 62.0367 81.3929C62.0218 81.3929 61.9928 81.3929 61.9499 81.3929C61.9088 81.3929 61.8603 81.3929 61.8043 81.3929C61.7483 81.3929 61.6923 81.3929 61.6363 81.3929C61.5803 81.3929 61.5308 81.3929 61.4879 81.3929C61.4468 81.3929 61.4198 81.3929 61.4067 81.3929C61.2966 81.3929 61.2107 81.3845 61.1491 81.3677C61.0894 81.3509 61.0474 81.3208 61.0231 81.2781C60.9988 81.2368 60.9867 81.1794 60.9867 81.1045V80.5249ZM60.5835 80.5697L60.7823 80.6061C60.758 80.7202 60.7226 80.8378 60.6759 80.9589C60.6311 81.08 60.577 81.1829 60.5135 81.2669L60.3203 81.1745C60.3595 81.1276 60.3959 81.0709 60.4295 81.0037C60.4631 80.9365 60.493 80.8658 60.5191 80.7909C60.5452 80.7146 60.5667 80.6404 60.5835 80.5697ZM60.9195 78.9429L61.0987 78.8589C61.1622 78.9317 61.2219 79.0122 61.2779 79.0997C61.3339 79.1858 61.375 79.2621 61.4011 79.3293L61.2079 79.4273C61.193 79.3825 61.1706 79.3321 61.1407 79.2761C61.1108 79.2201 61.0763 79.1634 61.0371 79.1053C60.9998 79.0458 60.9606 78.9912 60.9195 78.9429ZM62.1151 78.8505L62.3307 78.9373C62.2691 79.0437 62.2047 79.1522 62.1375 79.2621C62.0703 79.372 62.0059 79.4672 61.9443 79.5477L61.7735 79.4637C61.8127 79.4098 61.8528 79.3468 61.8939 79.2761C61.9368 79.2033 61.9779 79.1298 62.0171 79.0549C62.0563 78.98 62.089 78.9121 62.1151 78.8505ZM60.9419 79.6121V80.1049H62.2635V79.6121H60.9419ZM60.7207 79.4133H62.4959V80.3065H60.7207V79.4133ZM63.0923 80.2617C63.1875 80.2316 63.3032 80.1945 63.4395 80.1497C63.5758 80.1028 63.7167 80.0552 63.8623 80.0069L63.8931 80.1721C63.7643 80.2246 63.6355 80.2764 63.5067 80.3289C63.3798 80.3793 63.2622 80.4262 63.1539 80.4689L63.0923 80.2617ZM63.1315 79.3545H63.8959V79.5505H63.1315V79.3545ZM63.4451 78.8477H63.6411V81.1745C63.6411 81.2305 63.6346 81.2732 63.6215 81.3033C63.6084 81.3348 63.5851 81.3593 63.5515 81.3761C63.5179 81.3929 63.475 81.4034 63.4227 81.4069C63.3704 81.4125 63.3032 81.4153 63.2211 81.4153C63.2192 81.3908 63.2127 81.3593 63.2015 81.3201C63.1903 81.283 63.1772 81.2501 63.1623 81.2221C63.2164 81.2242 63.2659 81.2242 63.3107 81.2221C63.3555 81.2221 63.3854 81.2221 63.4003 81.2221C63.4171 81.22 63.4283 81.2165 63.4339 81.2109C63.4414 81.2053 63.4451 81.1934 63.4451 81.1745V78.8477ZM63.9071 78.9709H65.6459V79.1305H63.9071V78.9709ZM64.2431 79.3153H65.2483V79.4525H64.2431V79.3153ZM64.2431 79.6457H65.2483V79.7773H64.2431V79.6457ZM63.8623 80.3121H64.5679V80.4857H63.8623V80.3121ZM65.2063 79.0353H65.3967V80.2337H65.2063V79.0353ZM64.5063 80.3121H64.5399L64.5735 80.3037L64.6883 80.3513C64.6398 80.5228 64.5726 80.6789 64.4867 80.8189C64.4008 80.9568 64.301 81.0765 64.1871 81.1773C64.0751 81.2781 63.9575 81.3593 63.8343 81.4209C63.8231 81.3985 63.8063 81.3726 63.7839 81.3425C63.7615 81.3124 63.741 81.2893 63.7223 81.2725C63.8362 81.22 63.9454 81.1493 64.0499 81.0597C64.1544 80.968 64.2468 80.8616 64.3271 80.7405C64.4092 80.6194 64.469 80.4878 64.5063 80.3457V80.3121ZM63.9435 79.9985C64.0872 79.995 64.2534 79.9894 64.4419 79.9817C64.6304 79.974 64.8302 79.967 65.0411 79.9593C65.2539 79.9502 65.4658 79.9404 65.6767 79.9313L65.6711 80.0825C65.4658 80.0937 65.2604 80.1049 65.0551 80.1161C64.8498 80.1273 64.6538 80.1378 64.4671 80.1469C64.2823 80.1546 64.1162 80.1609 63.9687 80.1665L63.9435 79.9985ZM63.8595 80.6901L63.9771 80.5809C64.0536 80.6313 64.1339 80.6873 64.2179 80.7489C64.3038 80.8105 64.385 80.8714 64.4615 80.9309C64.538 80.9904 64.5996 81.0457 64.6463 81.0961L64.5231 81.2221C64.4764 81.1738 64.4158 81.1178 64.3411 81.0541C64.2664 80.9904 64.1871 80.9274 64.1031 80.8637C64.0191 80.8 63.9379 80.7426 63.8595 80.6901ZM64.1227 79.0353H64.3131V80.0209L64.1227 80.0433V79.0353ZM64.7051 80.3065H65.4947V80.4801H64.7051V80.3065ZM65.4471 80.3065H65.4779L65.5115 80.2981L65.6179 80.3429C65.5694 80.5312 65.4956 80.6964 65.3967 80.8385C65.2978 80.9806 65.183 81.0996 65.0523 81.1969C64.9216 81.2942 64.7826 81.3698 64.6351 81.4237C64.6239 81.4013 64.608 81.3754 64.5875 81.3453C64.5688 81.3152 64.5502 81.2914 64.5315 81.2725C64.6678 81.2277 64.7975 81.1626 64.9207 81.0765C65.0439 80.9904 65.1512 80.8861 65.2427 80.7629C65.336 80.6376 65.4042 80.4962 65.4471 80.3373V80.3065ZM64.9207 80.4241C64.9842 80.6222 65.0822 80.7944 65.2147 80.9421C65.3491 81.0898 65.5134 81.1969 65.7075 81.2641C65.6851 81.2809 65.6618 81.3054 65.6375 81.3369C65.6132 81.3705 65.5936 81.4006 65.5787 81.4265C65.379 81.3446 65.211 81.22 65.0747 81.0541C64.9384 80.8861 64.8367 80.688 64.7695 80.4605L64.9207 80.4241ZM66.6259 79.0857L66.7547 78.9065C66.8835 78.9982 66.9936 79.0969 67.0851 79.2033C67.1784 79.3097 67.2596 79.421 67.3287 79.5365C67.3996 79.6506 67.464 79.7668 67.5219 79.8865C67.5816 80.0041 67.6414 80.1217 67.7011 80.2393C67.7627 80.3569 67.829 80.471 67.8999 80.5809C67.9727 80.6908 68.0567 80.7958 68.1519 80.8945C68.249 80.9918 68.3647 81.0793 68.4991 81.1577C68.4879 81.178 68.4748 81.2025 68.4599 81.2305C68.445 81.2606 68.431 81.2893 68.4179 81.3173C68.4067 81.3474 68.3992 81.3733 68.3955 81.3957C68.2574 81.3194 68.1379 81.2305 68.0371 81.1297C67.9363 81.0289 67.8476 80.9204 67.7711 80.8049C67.6946 80.6873 67.6236 80.5669 67.5583 80.4437C67.4948 80.3184 67.4323 80.1938 67.3707 80.0685C67.311 79.9432 67.2466 79.8221 67.1775 79.7045C67.1084 79.5848 67.0291 79.4728 66.9395 79.3685C66.8518 79.2621 66.7472 79.1676 66.6259 79.0857ZM67.0851 79.5001L67.3203 79.5449C67.2531 79.8382 67.1654 80.1021 67.0571 80.3373C66.9507 80.5704 66.8191 80.7762 66.6623 80.9533C66.5055 81.1304 66.3207 81.2809 66.1079 81.4041C66.0948 81.3894 66.0762 81.3712 66.0519 81.3509C66.0295 81.3306 66.0052 81.3089 65.9791 81.2865C65.9548 81.2662 65.9334 81.2494 65.9147 81.2361C66.2358 81.0702 66.4887 80.842 66.6735 80.5529C66.8602 80.2617 66.9974 79.911 67.0851 79.5001Z" fill="white"/>
<path d="M73.5243 60.3016L73.6839 60.2092C73.7399 60.2708 73.7938 60.338 73.8463 60.4108C73.9002 60.4836 73.9478 60.5555 73.9891 60.6264C74.0318 60.6973 74.0626 60.7627 74.0815 60.8224L73.9107 60.9288C73.8904 60.8709 73.8596 60.8056 73.8183 60.7328C73.7791 60.66 73.7336 60.5863 73.6811 60.5116C73.6307 60.4369 73.5782 60.3669 73.5243 60.3016ZM72.5527 60.1476L72.7011 60.03C72.7648 60.0692 72.8278 60.1159 72.8915 60.17C72.9566 60.2223 73.0175 60.2755 73.0735 60.3296C73.1316 60.3819 73.1771 60.4304 73.2107 60.4752L73.0539 60.6096C73.0203 60.5629 72.9755 60.5125 72.9195 60.4584C72.8656 60.4024 72.8054 60.3473 72.7403 60.2932C72.6766 60.2372 72.6143 60.1887 72.5527 60.1476ZM72.1859 60.226H72.4071V60.8028C72.4071 60.8439 72.419 60.8709 72.4435 60.884C72.4694 60.8971 72.5275 60.9036 72.6171 60.9036C72.6339 60.9036 72.6612 60.9036 72.6983 60.9036C72.7375 60.9036 72.7823 60.9036 72.8327 60.9036C72.8831 60.9036 72.9335 60.9036 72.9839 60.9036C73.0343 60.9036 73.0812 60.9036 73.1239 60.9036C73.1666 60.9036 73.1988 60.9036 73.2191 60.9036C73.266 60.9036 73.3003 60.8971 73.3227 60.884C73.3472 60.8709 73.364 60.8439 73.3731 60.8028C73.3822 60.7617 73.3899 60.7001 73.3955 60.618C73.4102 60.6292 73.4298 60.6395 73.4543 60.6488C73.4788 60.6581 73.5026 60.6675 73.5271 60.6768C73.5516 60.6843 73.574 60.6899 73.5943 60.6936C73.5831 60.8 73.5663 60.8821 73.5439 60.94C73.5215 60.9997 73.4858 61.0399 73.4375 61.0604C73.3892 61.0828 73.322 61.094 73.2359 61.094C73.2212 61.094 73.1918 61.094 73.1491 61.094C73.1078 61.094 73.0595 61.094 73.0035 61.094C72.9475 61.094 72.8915 61.094 72.8355 61.094C72.7795 61.094 72.7298 61.094 72.6871 61.094C72.6458 61.094 72.6192 61.094 72.6059 61.094C72.496 61.094 72.4099 61.0856 72.3483 61.0688C72.2888 61.052 72.2468 61.0221 72.2223 60.9792C72.1978 60.9381 72.1859 60.8803 72.1859 60.8056V60.226ZM71.7827 60.2708L71.9815 60.3072C71.957 60.4211 71.922 60.5387 71.8751 60.66C71.8303 60.7813 71.7764 60.884 71.7127 60.968L71.5195 60.8756C71.5587 60.8289 71.5951 60.772 71.6287 60.7048C71.6623 60.6376 71.6924 60.5667 71.7183 60.492C71.7442 60.4155 71.7659 60.3417 71.7827 60.2708ZM72.1187 58.644L72.2979 58.56C72.3616 58.6328 72.4211 58.7131 72.4771 58.8008C72.5331 58.8867 72.5744 58.9632 72.6003 59.0304L72.4071 59.1284C72.3924 59.0836 72.37 59.0332 72.3399 58.9772C72.3098 58.9212 72.2755 58.8643 72.2363 58.8064C72.1992 58.7467 72.16 58.6925 72.1187 58.644ZM73.3143 58.5516L73.5299 58.6384C73.4683 58.7448 73.4039 58.8531 73.3367 58.9632C73.2695 59.0733 73.2051 59.1685 73.1435 59.2488L72.9727 59.1648C73.0119 59.1107 73.0518 59.0481 73.0931 58.9772C73.1358 58.9044 73.1771 58.8307 73.2163 58.756C73.2555 58.6813 73.2884 58.6132 73.3143 58.5516ZM72.1411 59.3132V59.806H73.4627V59.3132H72.1411ZM71.9199 59.1144H73.6951V60.0076H71.9199V59.1144ZM74.3167 60.03C74.3951 60.0113 74.4826 59.9889 74.5799 59.9628C74.6786 59.9367 74.7822 59.9077 74.8907 59.876C75.0006 59.8443 75.1098 59.8135 75.2183 59.7836L75.2435 59.974C75.0902 60.0207 74.9362 60.0673 74.7815 60.114C74.6268 60.1588 74.4854 60.1999 74.3587 60.2372L74.3167 60.03ZM74.3531 59.1144H75.2127V59.3132H74.3531V59.1144ZM74.7087 58.5488H74.9103V60.8616C74.9103 60.9195 74.9026 60.9633 74.8879 60.9932C74.8746 61.0231 74.8515 61.0464 74.8179 61.0632C74.7822 61.0781 74.7367 61.0884 74.6807 61.094C74.6268 61.0996 74.5554 61.1024 74.4679 61.1024C74.4644 61.0744 74.456 61.0417 74.4427 61.0044C74.4315 60.9689 74.4182 60.9372 74.4035 60.9092C74.4616 60.9111 74.5148 60.912 74.5631 60.912C74.6135 60.912 74.645 60.912 74.6583 60.912C74.6919 60.9101 74.7087 60.8933 74.7087 60.8616V58.5488ZM75.3219 59.0276H75.8623V59.218H75.3219V59.0276ZM76.2935 59.0276H76.8591V59.218H76.2935V59.0276ZM75.3303 59.61H75.8315V59.7976H75.3303V59.61ZM76.3019 59.61H76.8339V59.7976H76.3019V59.61ZM76.3103 60.2008H76.8927V60.394H76.3103V60.2008ZM76.2011 58.5684H76.4027V61.1248H76.2011V58.5684ZM75.7391 58.5684H75.9435V61.122H75.7391V58.5684ZM75.2631 60.1924H75.8455V60.3856H75.2631V60.1924ZM78.2787 58.5516H78.5083V60.8476H78.2787V58.5516ZM79.2783 59.946H79.5051V61.1192H79.2783V59.946ZM77.4191 58.8036H77.6375V59.5652H79.1663V58.8008H79.3931V59.7696H77.4191V58.8036ZM77.2903 59.946H77.5227V60.7496H79.3875V60.9596H77.2903V59.946Z" fill="white"/>
<path d="M74.805 75.0573C74.2149 75.0573 73.6927 74.953 73.237 74.7437C72.7813 74.5344 72.4229 74.2362 72.1618 73.8477C71.9077 73.4522 71.781 72.9853 71.781 72.4477V72.2461H73.2146V72.4029C73.2146 72.8208 73.3602 73.1568 73.6514 73.4109C73.9426 73.6573 74.3269 73.7805 74.805 73.7805C75.2901 73.7805 75.6639 73.665 75.925 73.4333C76.1938 73.2016 76.3282 72.9104 76.3282 72.5597V72.4477C76.3282 72.209 76.2687 72.0144 76.149 71.8653C76.0293 71.7162 75.869 71.6077 75.6674 71.5405C75.4658 71.4656 75.2383 71.4285 74.9842 71.4285H73.4162V69.8605L75.9474 68.5165V68.3373H71.9826V67.0605H77.5378V68.9645L75.1746 70.2189V70.3981H75.589C75.9397 70.3981 76.2799 70.4688 76.6082 70.6109C76.9442 70.753 77.2207 70.9728 77.437 71.2717C77.6533 71.5629 77.7618 71.9437 77.7618 72.4141V72.5485C77.7618 73.056 77.6386 73.5005 77.3922 73.8813C77.1458 74.2544 76.7986 74.5456 76.3506 74.7549C75.9103 74.9565 75.3951 75.0573 74.805 75.0573ZM81.6076 75.0573C80.9958 75.0573 80.4652 74.9488 80.0172 74.7325C79.5769 74.5162 79.2374 74.2096 78.998 73.8141C78.7593 73.4186 78.6396 72.9594 78.6396 72.4365V72.3245H80.0956V72.4253C80.0956 72.7984 80.2188 73.1197 80.4652 73.3885C80.7193 73.6496 81.0924 73.7805 81.5852 73.7805C82.078 73.7805 82.4553 73.6496 82.7164 73.3885C82.9852 73.1197 83.1196 72.7725 83.1196 72.3469V72.2349C83.1196 71.817 82.9852 71.4845 82.7164 71.2381C82.4553 70.9917 82.127 70.8685 81.7308 70.8685C81.5145 70.8685 81.3353 70.8986 81.1932 70.9581C81.0518 71.0176 80.9356 71.0925 80.846 71.1821C80.7564 71.2717 80.6822 71.3613 80.622 71.4509H78.886V67.0605H84.2396V68.3597H80.3196V70.2749H80.5212C80.5961 70.1776 80.6969 70.0845 80.8236 69.9949C80.951 69.9053 81.1148 69.8307 81.3164 69.7709C81.518 69.7112 81.7574 69.6813 82.0332 69.6813C82.4966 69.6813 82.918 69.7784 83.2988 69.9725C83.6796 70.1664 83.982 70.4541 84.206 70.8349C84.4377 71.208 84.5532 71.6714 84.5532 72.2237V72.3581C84.5532 72.9104 84.4342 73.3885 84.1948 73.7917C83.9638 74.1949 83.6278 74.5085 83.1868 74.7325C82.7465 74.9488 82.2201 75.0573 81.6076 75.0573ZM73.0578 89.0461L72.2066 88.3629L78.2322 80.9149L79.0834 81.5981L73.0578 89.0461ZM77.7842 89.0125C77.2165 89.0125 76.7727 88.8634 76.4514 88.5645C76.1301 88.2586 75.9698 87.8442 75.9698 87.3213V87.2429C75.9698 86.713 76.1301 86.2986 76.4514 85.9997C76.7727 85.6938 77.2165 85.5405 77.7842 85.5405C78.3365 85.5405 78.7775 85.6938 79.1058 85.9997C79.4341 86.2986 79.5986 86.713 79.5986 87.2429V87.3213C79.5986 87.8442 79.4383 88.2586 79.117 88.5645C78.7957 88.8634 78.3519 89.0125 77.7842 89.0125ZM77.7842 88.0941C78.0005 88.0941 78.1685 88.0269 78.2882 87.8925C78.4149 87.7581 78.4786 87.5824 78.4786 87.3661V87.1869C78.4786 86.9706 78.4149 86.7949 78.2882 86.6605C78.1685 86.5261 78.0005 86.4589 77.7842 86.4589C77.5679 86.4589 77.3957 86.5261 77.269 86.6605C77.1493 86.7949 77.0898 86.9706 77.0898 87.1869V87.3661C77.0898 87.5824 77.1493 87.7581 77.269 87.8925C77.3957 88.0269 77.5679 88.0941 77.7842 88.0941ZM73.5058 84.4205C72.9381 84.4205 72.4943 84.2714 72.173 83.9725C71.8517 83.6666 71.6914 83.2522 71.6914 82.7293V82.6509C71.6914 82.121 71.8517 81.7066 72.173 81.4077C72.4943 81.1018 72.9381 80.9485 73.5058 80.9485C74.0581 80.9485 74.4991 81.1018 74.8274 81.4077C75.1557 81.7066 75.3202 82.121 75.3202 82.6509V82.7293C75.3202 83.2522 75.1599 83.6666 74.8386 83.9725C74.5173 84.2714 74.0735 84.4205 73.5058 84.4205ZM73.5058 83.5021C73.7221 83.5021 73.8901 83.4349 74.0098 83.3005C74.1365 83.1661 74.2002 82.9904 74.2002 82.7741V82.5949C74.2002 82.3786 74.1365 82.2029 74.0098 82.0685C73.8901 81.9341 73.7221 81.8669 73.5058 81.8669C73.2895 81.8669 73.1173 81.9341 72.9906 82.0685C72.8709 82.2029 72.8114 82.3786 72.8114 82.5949V82.7741C72.8114 82.9904 72.8709 83.1661 72.9906 83.3005C73.1173 83.4349 73.2895 83.5021 73.5058 83.5021Z" fill="#F7F8F9"/>
</g>
<defs>
<linearGradient id="paint0_linear_1531_502" x1="70" y1="0" x2="70" y2="140" gradientUnits="userSpaceOnUse">
<stop stop-color="#6E7BE8"/>
<stop offset="1" stop-color="#FB97B9"/>
</linearGradient>
<linearGradient id="paint1_linear_1531_502" x1="117.164" y1="45.0709" x2="25.1972" y2="97.9604" gradientUnits="userSpaceOnUse">
<stop stop-color="#9B84D9"/>
<stop offset="1" stop-color="#1276F8"/>
</linearGradient>
<linearGradient id="paint2_linear_1531_502" x1="69.9992" y1="18.1992" x2="69.9992" y2="121.799" gradientUnits="userSpaceOnUse">
<stop stop-color="#20E2D7"/>
<stop offset="1" stop-color="#0F62FE"/>
</linearGradient>
<clipPath id="clip0_1531_502">
<rect width="140" height="140" fill="white"/>
</clipPath>
</defs>
</svg>
