<svg width="73" height="81" viewBox="0 0 73 81" fill="none" xmlns="http://www.w3.org/2000/svg">
<g clip-path="url(#clip0_1534_702)">
<path d="M65.2374 0.204478C62.0688 1.05407 60.1931 4.29571 61.0479 7.44488C61.9028 10.5941 65.1644 12.4582 68.333 11.6086C71.5016 10.759 73.3773 7.5174 72.5225 4.36823C71.6677 1.21906 68.406 -0.645116 65.2374 0.204478Z" fill="url(#paint0_linear_1534_702)"/>
<path d="M59.5176 24.2698C61.429 23.1199 62.0405 20.6479 60.8836 18.7483C59.7267 16.8486 57.2393 16.2408 55.328 17.3907C53.4166 18.5405 52.8051 21.0126 53.962 22.9122C55.119 24.8118 57.6063 25.4196 59.5176 24.2698Z" fill="url(#paint1_linear_1534_702)"/>
<path d="M47.1184 29.3215C49.2052 28.0661 49.8729 25.3671 48.6097 23.2931C47.3466 21.2191 44.6309 20.5555 42.5441 21.8109C40.4573 23.0663 39.7896 25.7653 41.0528 27.8393C42.3159 29.9133 45.0316 30.5769 47.1184 29.3215Z" fill="url(#paint2_linear_1534_702)"/>
<path d="M56.8644 29.0635C55.4421 27.6499 53.136 27.6499 51.7137 29.0635C50.2914 30.4771 50.2914 32.769 51.7137 34.1826C53.136 35.5962 55.4421 35.5962 56.8644 34.1826C58.2867 32.769 58.2867 30.4771 56.8644 29.0635Z" fill="url(#paint3_linear_1534_702)"/>
<path d="M46.3533 32.7765C44.7019 31.1353 42.0246 31.1353 40.3733 32.7765C38.722 34.4177 38.722 37.0786 40.3733 38.7198C42.0246 40.361 44.7019 40.361 46.3533 38.7198C48.0046 37.0786 48.0046 34.4177 46.3533 32.7765Z" fill="url(#paint4_linear_1534_702)"/>
<path d="M47.1058 46.9934C45.9816 45.8762 44.159 45.8762 43.0348 46.9934C41.9106 48.1107 41.9106 49.9222 43.0348 51.0395C44.159 52.1568 45.9816 52.1568 47.1058 51.0395C48.23 49.9222 48.23 48.1107 47.1058 46.9934Z" fill="url(#paint5_linear_1534_702)"/>
<path d="M29.3889 37.8041C30.7806 38.568 32.5318 38.066 33.3004 36.6828C34.069 35.2997 33.5639 33.5591 32.1722 32.7953C30.7805 32.0314 29.0293 32.5334 28.2607 33.9165C27.4921 35.2997 27.9972 37.0402 29.3889 37.8041Z" fill="url(#paint6_linear_1534_702)"/>
<path d="M19.7006 51.2657C21.3528 48.2805 20.2572 44.5294 17.2536 42.8874C14.25 41.2454 10.4757 42.3342 8.82354 45.3194C7.17137 48.3046 8.26695 52.0557 11.2706 53.6978C14.2742 55.3398 18.0485 54.2509 19.7006 51.2657Z" fill="url(#paint7_linear_1534_702)"/>
<path d="M31.3852 44.1414C28.6548 43.4143 25.8482 45.0247 25.1166 47.7384C24.385 50.4521 26.0054 53.2414 28.7358 53.9686C31.4662 54.6957 34.2728 53.0853 35.0044 50.3716C35.736 47.6579 34.1157 44.8686 31.3852 44.1414Z" fill="url(#paint8_linear_1534_702)"/>
<path d="M21.215 56.0015C18.0449 55.1573 14.7865 57.027 13.9371 60.1776C13.0877 63.3282 14.9689 66.5667 18.139 67.4109C21.3091 68.2551 24.5675 66.3854 25.4169 63.2347C26.2663 60.0841 24.3851 56.8457 21.215 56.0015Z" fill="url(#paint9_linear_1534_702)"/>
<path d="M32.1826 72.7801C30.0245 72.2054 27.8062 73.4782 27.228 75.6231C26.6497 77.7679 27.9304 79.9726 30.0885 80.5473C32.2466 81.122 34.4649 79.8491 35.0431 77.7043C35.6214 75.5594 34.3407 73.3548 32.1826 72.7801Z" fill="url(#paint10_linear_1534_702)"/>
<path d="M4.12424 73.9692C6.35805 73.927 8.1345 72.093 8.09203 69.8729C8.04957 67.6528 6.20428 65.8872 3.97047 65.9294C1.73665 65.9716 -0.0397961 67.8056 0.00266641 70.0257C0.0451289 72.2458 1.89042 74.0114 4.12424 73.9692Z" fill="url(#paint11_linear_1534_702)"/>
</g>
<defs>
<linearGradient id="paint0_linear_1534_702" x1="68.333" y1="11.6086" x2="65.2727" y2="0.195005" gradientUnits="userSpaceOnUse">
<stop stop-color="#6E7BE8"/>
<stop offset="1" stop-color="#FB97B9"/>
</linearGradient>
<linearGradient id="paint1_linear_1534_702" x1="55.328" y1="17.3907" x2="59.48" y2="24.2925" gradientUnits="userSpaceOnUse">
<stop stop-color="#6E7BE8"/>
<stop offset="1" stop-color="#FB97B9"/>
</linearGradient>
<linearGradient id="paint2_linear_1534_702" x1="42.5441" y1="21.8109" x2="47.0773" y2="29.3462" gradientUnits="userSpaceOnUse">
<stop stop-color="#6E7BE8"/>
<stop offset="1" stop-color="#FB97B9"/>
</linearGradient>
<linearGradient id="paint3_linear_1534_702" x1="51.7137" y1="34.1826" x2="56.8327" y2="29.032" gradientUnits="userSpaceOnUse">
<stop stop-color="#6E7BE8"/>
<stop offset="1" stop-color="#FB97B9"/>
</linearGradient>
<linearGradient id="paint4_linear_1534_702" x1="40.3733" y1="38.7198" x2="46.3165" y2="32.7399" gradientUnits="userSpaceOnUse">
<stop stop-color="#6E7BE8"/>
<stop offset="1" stop-color="#FB97B9"/>
</linearGradient>
<linearGradient id="paint5_linear_1534_702" x1="43.0348" y1="51.0395" x2="47.0809" y2="46.9684" gradientUnits="userSpaceOnUse">
<stop stop-color="#6E7BE8"/>
<stop offset="1" stop-color="#FB97B9"/>
</linearGradient>
<linearGradient id="paint6_linear_1534_702" x1="32.1722" y1="32.7953" x2="29.415" y2="37.8185" gradientUnits="userSpaceOnUse">
<stop stop-color="#6E7BE8"/>
<stop offset="1" stop-color="#FB97B9"/>
</linearGradient>
<linearGradient id="paint7_linear_1534_702" x1="8.8235" y1="45.3194" x2="19.6693" y2="51.3221" gradientUnits="userSpaceOnUse">
<stop stop-color="#6E7BE8"/>
<stop offset="1" stop-color="#FB97B9"/>
</linearGradient>
<linearGradient id="paint8_linear_1534_702" x1="28.7358" y1="53.9686" x2="31.3549" y2="44.1335" gradientUnits="userSpaceOnUse">
<stop stop-color="#6E7BE8"/>
<stop offset="1" stop-color="#FB97B9"/>
</linearGradient>
<linearGradient id="paint9_linear_1534_702" x1="18.139" y1="67.411" x2="21.1798" y2="55.9925" gradientUnits="userSpaceOnUse">
<stop stop-color="#6E7BE8"/>
<stop offset="1" stop-color="#FB97B9"/>
</linearGradient>
<linearGradient id="paint10_linear_1534_702" x1="30.0886" y1="80.5469" x2="32.1587" y2="72.7736" gradientUnits="userSpaceOnUse">
<stop stop-color="#6E7BE8"/>
<stop offset="1" stop-color="#FB97B9"/>
</linearGradient>
<linearGradient id="paint11_linear_1534_702" x1="3.97046" y1="65.9294" x2="4.12236" y2="73.9693" gradientUnits="userSpaceOnUse">
<stop stop-color="#6E7BE8"/>
<stop offset="1" stop-color="#FB97B9"/>
</linearGradient>
<clipPath id="clip0_1534_702">
<rect width="73" height="81" fill="white"/>
</clipPath>
</defs>
</svg>
