<svg width="19" height="19" viewBox="0 0 19 19" fill="none" xmlns="http://www.w3.org/2000/svg">
<path d="M18.2749 9.16313C18.2749 9.45474 18.1594 9.73447 17.9532 9.94061C17.7485 10.1469 17.4693 10.2627 17.1784 10.2627H10.2339V17.2267C10.2339 17.5183 10.1184 17.798 9.91228 18.0042C9.7076 18.2104 9.42836 18.3263 9.13743 18.3263C8.84649 18.3263 8.56725 18.2104 8.36257 18.0042C8.15643 17.798 8.04093 17.5183 8.04093 17.2267V10.2627H1.09649C0.805555 10.2627 0.526317 10.1469 0.321639 9.94061C0.115499 9.73447 0 9.45474 0 9.16313C0 8.87153 0.115499 8.59179 0.321639 8.38566C0.526317 8.17938 0.805555 8.06356 1.09649 8.06356H8.04093V1.09958C8.04093 0.807969 8.15643 0.528236 8.36257 0.322102C8.56725 0.115822 8.84649 0 9.13743 0C9.42836 0 9.7076 0.115822 9.91228 0.322102C10.1184 0.528236 10.2339 0.807969 10.2339 1.09958V8.06356H17.1784C17.4693 8.06356 17.7485 8.17938 17.9532 8.38566C18.1594 8.59179 18.2749 8.87153 18.2749 9.16313Z" fill="white"/>
</svg>
