<svg width="46" height="46" viewBox="0 0 46 46" fill="none" xmlns="http://www.w3.org/2000/svg">
<g filter="url(#filter0_d_1937_638)">
<path d="M38.1893 20.6928C38.1893 10.9764 30.3346 3.09961 20.6454 3.09961C10.9562 3.09961 3.10156 10.9764 3.10156 20.6928C3.10156 30.4093 10.9562 38.2861 20.6454 38.2861C30.3346 38.2861 38.1893 30.4093 38.1893 20.6928Z" fill="#2D5FFF"/>
<path d="M37.8255 20.6935C37.8255 11.1795 30.1345 3.4668 20.6471 3.4668C11.1598 3.4668 3.46875 11.1795 3.46875 20.6935C3.46875 30.2075 11.1598 37.9202 20.6471 37.9202C30.1345 37.9202 37.8255 30.2075 37.8255 20.6935Z" stroke="white" stroke-width="0.5"/>
<path d="M29.7827 20.6924C29.7827 20.984 29.6672 21.2638 29.461 21.4699C29.2563 21.6762 28.9771 21.792 28.6862 21.792H21.7417V28.756C21.7417 29.0476 21.6262 29.3273 21.4201 29.5335C21.2154 29.7397 20.9362 29.8556 20.6452 29.8556C20.3543 29.8556 20.0751 29.7397 19.8704 29.5335C19.6642 29.3273 19.5487 29.0476 19.5487 28.756V21.792H12.6043C12.3134 21.792 12.0341 21.6762 11.8295 21.4699C11.6233 21.2638 11.5078 20.984 11.5078 20.6924C11.5078 20.4008 11.6233 20.1211 11.8295 19.915C12.0341 19.7087 12.3134 19.5929 12.6043 19.5929H19.5487V12.6289C19.5487 12.3373 19.6642 12.0575 19.8704 11.8514C20.0751 11.6451 20.3543 11.5293 20.6452 11.5293C20.9362 11.5293 21.2154 11.6451 21.4201 11.8514C21.6262 12.0575 21.7417 12.3373 21.7417 12.6289V19.5929H28.6862C28.9771 19.5929 29.2563 19.7087 29.461 19.915C29.6672 20.1211 29.7827 20.4008 29.7827 20.6924Z" fill="white"/>
</g>
<defs>
<filter id="filter0_d_1937_638" x="0.0015626" y="-0.00039053" width="45.2859" height="45.3855" filterUnits="userSpaceOnUse" color-interpolation-filters="sRGB">
<feFlood flood-opacity="0" result="BackgroundImageFix"/>
<feColorMatrix in="SourceAlpha" type="matrix" values="0 0 0 0 0 0 0 0 0 0 0 0 0 0 0 0 0 0 127 0" result="hardAlpha"/>
<feOffset dx="2" dy="2"/>
<feGaussianBlur stdDeviation="2.55"/>
<feComposite in2="hardAlpha" operator="out"/>
<feColorMatrix type="matrix" values="0 0 0 0 0.176471 0 0 0 0 0.372549 0 0 0 0 1 0 0 0 0.25 0"/>
<feBlend mode="normal" in2="BackgroundImageFix" result="effect1_dropShadow_1937_638"/>
<feBlend mode="normal" in="SourceGraphic" in2="effect1_dropShadow_1937_638" result="shape"/>
</filter>
</defs>
</svg>
