<svg width="46" height="46" viewBox="0 0 46 46" fill="none" xmlns="http://www.w3.org/2000/svg">
<g filter="url(#filter0_d_1937_642)">
<path d="M38.1893 20.6928C38.1893 10.9764 30.3346 3.09961 20.6454 3.09961C10.9562 3.09961 3.10156 10.9764 3.10156 20.6928C3.10156 30.4093 10.9562 38.2861 20.6454 38.2861C30.3346 38.2861 38.1893 30.4093 38.1893 20.6928Z" fill="#8848DB"/>
<path d="M37.8255 20.6935C37.8255 11.1795 30.1345 3.4668 20.6471 3.4668C11.1598 3.4668 3.46875 11.1795 3.46875 20.6935C3.46875 30.2075 11.1598 37.9202 20.6471 37.9202C30.1345 37.9202 37.8255 30.2075 37.8255 20.6935Z" stroke="white" stroke-width="0.5"/>
<path d="M29.7827 20.6933C29.7827 20.9849 29.6672 21.2647 29.461 21.4708C29.2563 21.6771 28.9771 21.7929 28.6862 21.7929H12.6043C12.3134 21.7929 12.0341 21.6771 11.8295 21.4708C11.6233 21.2647 11.5078 20.9849 11.5078 20.6933C11.5078 20.4017 11.6233 20.122 11.8295 19.9159C12.0341 19.7096 12.3134 19.5938 12.6043 19.5938H28.6862C28.9771 19.5938 29.2563 19.7096 29.461 19.9159C29.6672 20.122 29.7827 20.4017 29.7827 20.6933Z" fill="white"/>
</g>
<defs>
<filter id="filter0_d_1937_642" x="0.0015626" y="-0.00039053" width="45.2859" height="45.3855" filterUnits="userSpaceOnUse" color-interpolation-filters="sRGB">
<feFlood flood-opacity="0" result="BackgroundImageFix"/>
<feColorMatrix in="SourceAlpha" type="matrix" values="0 0 0 0 0 0 0 0 0 0 0 0 0 0 0 0 0 0 127 0" result="hardAlpha"/>
<feOffset dx="2" dy="2"/>
<feGaussianBlur stdDeviation="2.55"/>
<feComposite in2="hardAlpha" operator="out"/>
<feColorMatrix type="matrix" values="0 0 0 0 0.533333 0 0 0 0 0.282353 0 0 0 0 0.858824 0 0 0 0.25 0"/>
<feBlend mode="normal" in2="BackgroundImageFix" result="effect1_dropShadow_1937_642"/>
<feBlend mode="normal" in="SourceGraphic" in2="effect1_dropShadow_1937_642" result="shape"/>
</filter>
</defs>
</svg>
