<svg width="24" height="24" viewBox="0 0 24 24" fill="none" xmlns="http://www.w3.org/2000/svg">
<path d="M15.7506 4.50059V19.5006C15.7507 19.649 15.7068 19.7941 15.6244 19.9176C15.542 20.041 15.4248 20.1372 15.2877 20.1941C15.1506 20.2509 14.9997 20.2657 14.8541 20.2367C14.7085 20.2078 14.5749 20.1362 14.47 20.0312L6.96996 12.5312C6.90023 12.4616 6.84491 12.3788 6.80717 12.2878C6.76943 12.1967 6.75 12.0992 6.75 12.0006C6.75 11.902 6.76943 11.8044 6.80717 11.7134C6.84491 11.6223 6.90023 11.5396 6.96996 11.47L14.47 3.96997C14.5749 3.86496 14.7085 3.79343 14.8541 3.76444C14.9997 3.73546 15.1506 3.75031 15.2877 3.80712C15.4248 3.86394 15.542 3.96016 15.6244 4.0836C15.7068 4.20705 15.7507 4.35217 15.7506 4.50059Z" fill="#2D5FFF"/>
</svg>
