<svg width="28" height="28" viewBox="0 0 28 28" fill="none" xmlns="http://www.w3.org/2000/svg">
<path d="M10.9377 12.7345C11.0707 12.6577 11.1812 12.5472 11.258 12.4142C11.3348 12.2811 11.3752 12.1302 11.3752 11.9766V4.10156C11.3744 3.96206 11.3403 3.82477 11.2756 3.70113C11.211 3.5775 11.1178 3.47111 11.0037 3.39083C10.8896 3.31056 10.7579 3.25873 10.6197 3.23967C10.4815 3.22061 10.3408 3.23486 10.2092 3.28125C7.65529 4.18514 5.50754 5.97039 4.15205 8.31608C2.79657 10.6618 2.32226 13.414 2.81438 16.0781C2.83989 16.2159 2.89811 16.3455 2.98414 16.4561C3.07017 16.5667 3.18149 16.655 3.30875 16.7136C3.42344 16.7672 3.54855 16.7949 3.67516 16.7945C3.82874 16.7946 3.97962 16.7542 4.11266 16.6775L10.9377 12.7345ZM9.62516 5.42719V11.4712L4.38829 14.4933C4.37516 14.3281 4.37516 14.1619 4.37516 14C4.37671 12.2263 4.86767 10.4875 5.79397 8.97492C6.72027 7.46235 8.04599 6.23472 9.62516 5.42719ZM25.3752 14C25.376 16.4972 24.5551 18.9252 23.0391 20.9096C21.5231 22.8939 19.3963 24.3242 16.9867 24.9799C14.5771 25.6355 12.0188 25.48 9.70635 24.5374C7.39392 23.5948 5.45594 21.9174 4.19141 19.7641C4.13246 19.6646 4.09381 19.5544 4.07769 19.44C4.06157 19.3255 4.0683 19.2089 4.09748 19.097C4.12667 18.9852 4.17774 18.8802 4.24774 18.7882C4.31775 18.6962 4.40529 18.6189 4.50532 18.5609L13.1252 13.5439V3.5C13.1252 3.26794 13.2173 3.04538 13.3814 2.88128C13.5455 2.71719 13.7681 2.625 14.0002 2.625C15.9852 2.62601 17.9354 3.14621 19.6572 4.13394C21.379 5.12168 22.8126 6.5426 23.8155 8.25563C23.8275 8.27313 23.8384 8.29063 23.8494 8.30922C23.8603 8.32781 23.8713 8.34969 23.8811 8.36937C24.8625 10.0835 25.3777 12.0248 25.3752 14Z" fill="#375DFB"/>
</svg>
