<svg width="28" height="28" viewBox="0 0 28 28" fill="none" xmlns="http://www.w3.org/2000/svg">
<path d="M18.8125 12.25C18.8125 12.4821 18.7203 12.7046 18.5562 12.8687C18.3921 13.0328 18.1696 13.125 17.9375 13.125H10.5C10.2679 13.125 10.0454 13.0328 9.88128 12.8687C9.71719 12.7046 9.625 12.4821 9.625 12.25C9.625 12.0179 9.71719 11.7954 9.88128 11.6313C10.0454 11.4672 10.2679 11.375 10.5 11.375H17.9375C18.1696 11.375 18.3921 11.4672 18.5562 11.6313C18.7203 11.7954 18.8125 12.0179 18.8125 12.25ZM17.9375 14.875H10.5C10.2679 14.875 10.0454 14.9672 9.88128 15.1313C9.71719 15.2954 9.625 15.5179 9.625 15.75C9.625 15.9821 9.71719 16.2046 9.88128 16.3687C10.0454 16.5328 10.2679 16.625 10.5 16.625H17.9375C18.1696 16.625 18.3921 16.5328 18.5562 16.3687C18.7203 16.2046 18.8125 15.9821 18.8125 15.75C18.8125 15.5179 18.7203 15.2954 18.5562 15.1313C18.3921 14.9672 18.1696 14.875 17.9375 14.875ZM25.375 13.5625C25.3718 16.4623 24.2185 19.2425 22.168 21.293C20.1175 23.3435 17.3373 24.4968 14.4375 24.5H5.25C4.78587 24.5 4.34075 24.3156 4.01256 23.9874C3.68437 23.6592 3.5 23.2141 3.5 22.75V13.5625C3.5 10.6617 4.65234 7.8797 6.70352 5.82852C8.7547 3.77734 11.5367 2.625 14.4375 2.625C17.3383 2.625 20.1203 3.77734 22.1715 5.82852C24.2227 7.8797 25.375 10.6617 25.375 13.5625ZM23.625 13.5625C23.625 11.1258 22.657 8.78895 20.934 7.06596C19.2111 5.34297 16.8742 4.375 14.4375 4.375C12.0008 4.375 9.66395 5.34297 7.94096 7.06596C6.21797 8.78895 5.25 11.1258 5.25 13.5625V22.75H14.4375C16.8734 22.7474 19.2087 21.7786 20.9312 20.0562C22.6536 18.3337 23.6224 15.9984 23.625 13.5625Z" fill="#7B9BFF"/>
</svg>
