<svg width="28" height="28" viewBox="0 0 28 28" fill="none" xmlns="http://www.w3.org/2000/svg">
<path d="M13.125 8.75C13.125 9.61529 12.8684 10.4612 12.3877 11.1806C11.9069 11.9001 11.2237 12.4608 10.4242 12.792C9.62481 13.1231 8.74515 13.2097 7.89648 13.0409C7.04782 12.8721 6.26826 12.4554 5.65641 11.8436C5.04456 11.2317 4.62788 10.4522 4.45907 9.60352C4.29026 8.75486 4.3769 7.87519 4.70803 7.07576C5.03916 6.27634 5.59992 5.59305 6.31938 5.11232C7.03885 4.63159 7.88471 4.375 8.75 4.375C9.91032 4.375 11.0231 4.83594 11.8436 5.65641C12.6641 6.47688 13.125 7.58968 13.125 8.75ZM19.25 13.125C20.1153 13.125 20.9612 12.8684 21.6806 12.3877C22.4001 11.9069 22.9608 11.2237 23.292 10.4242C23.6231 9.62481 23.7097 8.74515 23.5409 7.89648C23.3721 7.04782 22.9554 6.26826 22.3436 5.65641C21.7317 5.04456 20.9522 4.62788 20.1035 4.45907C19.2549 4.29026 18.3752 4.3769 17.5758 4.70803C16.7763 5.03916 16.0931 5.59992 15.6123 6.31938C15.1316 7.03885 14.875 7.88471 14.875 8.75C14.875 9.91032 15.3359 11.0231 16.1564 11.8436C16.9769 12.6641 18.0897 13.125 19.25 13.125ZM8.75 14.875C7.88471 14.875 7.03885 15.1316 6.31938 15.6123C5.59992 16.0931 5.03916 16.7763 4.70803 17.5758C4.3769 18.3752 4.29026 19.2549 4.45907 20.1035C4.62788 20.9522 5.04456 21.7317 5.65641 22.3436C6.26826 22.9554 7.04782 23.3721 7.89648 23.5409C8.74515 23.7097 9.62481 23.6231 10.4242 23.292C11.2237 22.9608 11.9069 22.4001 12.3877 21.6806C12.8684 20.9612 13.125 20.1153 13.125 19.25C13.125 18.0897 12.6641 16.9769 11.8436 16.1564C11.0231 15.3359 9.91032 14.875 8.75 14.875ZM19.25 14.875C18.3847 14.875 17.5388 15.1316 16.8194 15.6123C16.0999 16.0931 15.5392 16.7763 15.208 17.5758C14.8769 18.3752 14.7903 19.2549 14.9591 20.1035C15.1279 20.9522 15.5446 21.7317 16.1564 22.3436C16.7683 22.9554 17.5478 23.3721 18.3965 23.5409C19.2451 23.7097 20.1248 23.6231 20.9242 23.292C21.7237 22.9608 22.4069 22.4001 22.8877 21.6806C23.3684 20.9612 23.625 20.1153 23.625 19.25C23.625 18.0897 23.1641 16.9769 22.3436 16.1564C21.5231 15.3359 20.4103 14.875 19.25 14.875Z" fill="#375DFB"/>
</svg>
