<svg width="24" height="24" viewBox="0 0 24 24" fill="none" xmlns="http://www.w3.org/2000/svg">
<path d="M21 11.2502V20.2502C21 20.4492 20.921 20.6399 20.7803 20.7806C20.6397 20.9212 20.4489 21.0002 20.25 21.0002H3.75001C3.5511 21.0002 3.36033 20.9212 3.21968 20.7806C3.07903 20.6399 3.00001 20.4492 3.00001 20.2502V11.2502C2.99931 11.053 3.03782 10.8577 3.1133 10.6755C3.18878 10.4933 3.29973 10.3279 3.4397 10.189L10.9397 2.68899C11.221 2.4079 11.6024 2.25 12 2.25C12.3977 2.25 12.779 2.4079 13.0603 2.68899L20.5603 10.189C20.7003 10.3279 20.8112 10.4933 20.8867 10.6755C20.9622 10.8577 21.0007 11.053 21 11.2502Z" fill="#375DFB"/>
</svg>
