<svg width="28" height="28" viewBox="0 0 28 28" fill="none" xmlns="http://www.w3.org/2000/svg">
<path d="M12.8254 17.2732C13.9982 16.4925 14.8885 15.3551 15.3648 14.0292C15.8411 12.7033 15.8781 11.2594 15.4702 9.91085C15.0624 8.56234 14.2314 7.38087 13.1002 6.54115C11.969 5.70143 10.5975 5.24805 9.18871 5.24805C7.77988 5.24805 6.40845 5.70143 5.27721 6.54115C4.14598 7.38087 3.31501 8.56234 2.90719 9.91085C2.49936 11.2594 2.53633 12.7033 3.01263 14.0292C3.48893 15.3551 4.37927 16.4925 5.552 17.2732C3.43066 18.0551 1.61899 19.5019 0.387308 21.3977C0.322575 21.494 0.277611 21.6021 0.255031 21.7158C0.23245 21.8296 0.232703 21.9466 0.255775 22.0603C0.278846 22.1739 0.324276 22.2818 0.389424 22.3778C0.454571 22.4737 0.538137 22.5557 0.635264 22.6191C0.73239 22.6824 0.84114 22.7258 0.955192 22.7468C1.06924 22.7677 1.18632 22.7658 1.29962 22.7411C1.41292 22.7164 1.52018 22.6695 1.61517 22.6029C1.71016 22.5364 1.79098 22.4517 1.85293 22.3537C2.64742 21.1317 3.73457 20.1276 5.01566 19.4325C6.29675 18.7373 7.73119 18.3732 9.18871 18.3732C10.6462 18.3732 12.0807 18.7373 13.3618 19.4325C14.6429 20.1276 15.73 21.1317 16.5245 22.3537C16.6528 22.5444 16.8511 22.677 17.0764 22.7227C17.3017 22.7685 17.5359 22.7237 17.7285 22.5981C17.921 22.4725 18.0564 22.2762 18.1054 22.0516C18.1544 21.8269 18.1129 21.5921 17.9901 21.3977C16.7584 19.5019 14.9468 18.0551 12.8254 17.2732ZM4.37621 11.8132C4.37621 10.8614 4.65846 9.93094 5.18727 9.13953C5.71607 8.34812 6.46768 7.73129 7.34705 7.36704C8.22642 7.00279 9.19405 6.90749 10.1276 7.09318C11.0611 7.27887 11.9186 7.73722 12.5917 8.41026C13.2647 9.0833 13.7231 9.9408 13.9087 10.8743C14.0944 11.8079 13.9991 12.7755 13.6349 13.6549C13.2706 14.5342 12.6538 15.2859 11.8624 15.8147C11.071 16.3435 10.1405 16.6257 9.18871 16.6257C7.9128 16.6243 6.68957 16.1168 5.78736 15.2146C4.88516 14.3124 4.37766 13.0891 4.37621 11.8132ZM27.3603 22.6085C27.1659 22.7353 26.9292 22.7796 26.7021 22.7318C26.4751 22.684 26.2763 22.548 26.1495 22.3537C25.356 21.131 24.2689 20.1264 22.9876 19.4316C21.7062 18.7368 20.2713 18.3738 18.8137 18.3757C18.5817 18.3757 18.3591 18.2835 18.195 18.1194C18.0309 17.9553 17.9387 17.7328 17.9387 17.5007C17.9387 17.2686 18.0309 17.0461 18.195 16.882C18.3591 16.7179 18.5817 16.6257 18.8137 16.6257C19.5224 16.625 20.2223 16.4678 20.8632 16.1654C21.5041 15.8629 22.0703 15.4226 22.5213 14.8759C22.9724 14.3292 23.2971 13.6897 23.4723 13.003C23.6475 12.3162 23.6689 11.5993 23.5349 10.9034C23.4009 10.2074 23.1149 9.54968 22.6972 8.97711C22.2795 8.40454 21.7406 7.93128 21.1188 7.59115C20.497 7.25102 19.8078 7.05242 19.1004 7.00953C18.393 6.96664 17.6848 7.08053 17.0265 7.34305C16.9192 7.38945 16.8036 7.41387 16.6867 7.41486C16.5698 7.41584 16.4538 7.39339 16.3457 7.34881C16.2376 7.30423 16.1396 7.23843 16.0573 7.15531C15.9751 7.07219 15.9103 6.97342 15.8669 6.86485C15.8235 6.75628 15.8023 6.64011 15.8045 6.5232C15.8067 6.40629 15.8324 6.29101 15.8799 6.18417C15.9274 6.07734 15.9959 5.98112 16.0813 5.90119C16.1666 5.82126 16.2671 5.75926 16.3768 5.71883C17.8834 5.11798 19.5592 5.09636 21.0808 5.65814C22.6024 6.21992 23.862 7.32529 24.6167 8.76101C25.3714 10.1967 25.5677 11.8611 25.1676 13.433C24.7676 15.0049 23.7996 16.3729 22.4504 17.2732C24.5718 18.0551 26.3834 19.5019 27.6151 21.3977C27.7419 21.5921 27.7862 21.8288 27.7384 22.0559C27.6906 22.283 27.5546 22.4817 27.3603 22.6085Z" fill="#7B9BFF"/>
</svg>
