<svg width="200" height="200" viewBox="0 0 200 200" fill="none" xmlns="http://www.w3.org/2000/svg">
<circle cx="100" cy="100" r="40" fill="#46C761"/>
<path d="M100 0C123.81 2.83935e-07 146.839 8.49584 164.945 23.9594C183.05 39.423 195.044 60.8394 198.769 84.3566C202.494 107.874 197.705 131.948 185.264 152.25C172.823 172.551 153.547 187.748 130.902 195.106L123.794 173.231C141.231 167.566 156.074 155.865 165.653 140.232C175.233 124.6 178.92 106.063 176.052 87.9546C173.184 69.8463 163.949 53.3557 150.008 41.4487C136.066 29.5418 118.334 23 100 23V0Z" fill="url(#paint0_linear_1530_1110)"/>
<path d="M177 100C177 142.526 142.526 177 100 177C57.4741 177 23 142.526 23 100C23 57.4741 57.4741 23 100 23C142.526 23 177 57.4741 177 100ZM26.0015 100C26.0015 140.868 59.1317 173.999 100 173.999C140.868 173.999 173.999 140.868 173.999 100C173.999 59.1317 140.868 26.0015 100 26.0015C59.1317 26.0015 26.0015 59.1317 26.0015 100Z" fill="url(#paint1_linear_1530_1110)"/>
<path d="M100 26C89.3032 26 78.7335 28.3191 69.0192 32.7974C59.3049 37.2757 50.677 43.8069 43.73 51.9408C36.7829 60.0748 31.6819 69.6182 28.7783 79.9134C25.8748 90.2086 25.2377 101.011 26.9111 111.576C28.5844 122.141 32.5284 132.218 38.4712 141.112C44.4141 150.006 52.2145 157.506 61.3351 163.095C70.4557 168.684 80.6795 172.23 91.3022 173.487C101.925 174.744 112.694 173.684 122.867 170.378L113.72 142.227C107.616 144.21 101.155 144.847 94.7813 144.092C88.4077 143.338 82.2734 141.211 76.8011 137.857C71.3287 134.504 66.6485 130.004 63.0827 124.667C59.517 119.331 57.1507 113.285 56.1466 106.946C55.1426 100.607 55.5249 94.1252 57.267 87.948C59.0091 81.7709 62.0697 76.0449 66.238 71.1645C70.4062 66.2841 75.5829 62.3654 81.4115 59.6784C87.2401 56.9914 93.5819 55.6 100 55.6V26Z" fill="url(#paint2_linear_1530_1110)"/>
<defs>
<linearGradient id="paint0_linear_1530_1110" x1="100" y1="0" x2="100" y2="200" gradientUnits="userSpaceOnUse">
<stop stop-color="#6E7BE8"/>
<stop offset="1" stop-color="#FB97B9"/>
</linearGradient>
<linearGradient id="paint1_linear_1530_1110" x1="167.375" y1="64.3875" x2="35.9938" y2="139.944" gradientUnits="userSpaceOnUse">
<stop stop-color="#9B84D9"/>
<stop offset="1" stop-color="#1276F8"/>
</linearGradient>
<linearGradient id="paint2_linear_1530_1110" x1="100" y1="26" x2="100" y2="174" gradientUnits="userSpaceOnUse">
<stop stop-color="#20E2D7"/>
<stop offset="1" stop-color="#0F62FE"/>
</linearGradient>
</defs>
</svg>
