<svg width="28" height="28" viewBox="0 0 28 28" fill="none" xmlns="http://www.w3.org/2000/svg">
<g clip-path="url(#clip0_1531_375)">
<path d="M28 14C28 21.732 21.732 28 14 28C6.26802 28 0 21.732 0 14C0 6.26802 6.26802 0 14 0C21.732 0 28 6.26802 28 14ZM2.24 14C2.24 20.4949 7.50514 25.76 14 25.76C20.4949 25.76 25.76 20.4949 25.76 14C25.76 7.50514 20.4949 2.24 14 2.24C7.50514 2.24 2.24 7.50514 2.24 14Z" fill="#DBE1EE"/>
<path d="M13.999 1.11958C13.999 0.501023 14.5013 -0.00507565 15.1179 0.0443544C17.4526 0.231522 19.7095 1.00218 21.6779 2.29338C23.9593 3.78991 25.7537 5.92045 26.8405 8.42312C27.9273 10.9258 28.2591 13.6915 27.7952 16.3802C27.3312 19.0689 26.0917 21.5635 24.229 23.5572C22.3664 25.5509 19.9617 26.9569 17.3107 27.6023C14.6597 28.2477 11.8778 28.1044 9.30716 27.1899C6.7365 26.2756 4.48901 24.6299 2.84109 22.4554C1.41925 20.5791 0.497168 18.3797 0.15195 16.0631C0.0607793 15.4513 0.531616 14.9159 1.14875 14.8739C1.76588 14.8319 2.29476 15.2997 2.39524 15.91C2.70491 17.7909 3.4683 19.5743 4.62635 21.1024C6.01064 22.9291 7.8985 24.3114 10.0579 25.0795C12.2172 25.8476 14.554 25.968 16.7808 25.4259C19.0077 24.8837 21.0276 23.7027 22.5922 22.028C24.1569 20.3532 25.198 18.2578 25.5878 15.9993C25.9775 13.7408 25.6988 11.4176 24.7859 9.31536C23.873 7.21313 22.3657 5.42345 20.4493 4.16637C18.8461 3.11471 17.0149 2.47414 15.1174 2.29287C14.5016 2.23405 13.999 1.73814 13.999 1.11958Z" fill="#8848DB"/>
<path d="M24.5 14C24.5 19.799 19.799 24.5 14 24.5C8.20103 24.5 3.5 19.799 3.5 14C3.5 8.20103 8.20103 3.5 14 3.5C19.799 3.5 24.5 8.20103 24.5 14ZM5.6 14C5.6 18.6392 9.36079 22.4 14 22.4C18.6392 22.4 22.4 18.6392 22.4 14C22.4 9.36079 18.6392 5.6 14 5.6C9.36079 5.6 5.6 9.36079 5.6 14Z" fill="#DBE1EE"/>
<path d="M14 4.54921C14 3.96931 14.4713 3.49376 15.0483 3.55166C16.8449 3.73191 18.5711 4.37329 20.0558 5.42149C21.8274 6.67226 23.1683 8.4409 23.8943 10.4845C24.6202 12.528 24.6956 14.7462 24.11 16.8344C23.5244 18.9225 22.3066 20.7781 20.624 22.1462C18.9413 23.5143 16.8763 24.3278 14.7126 24.475C12.5489 24.6222 10.3927 24.0958 8.54027 22.9681C6.68785 21.8405 5.23001 20.1669 4.36706 18.1773C3.64388 16.5099 3.36823 14.6892 3.55837 12.8936C3.61943 12.3169 4.18113 11.9526 4.74885 12.0709C5.31655 12.1893 5.67381 12.7458 5.62717 13.3238C5.51679 14.6922 5.74316 16.0725 6.29366 17.3417C6.98399 18.9334 8.15028 20.2722 9.63222 21.1743C11.1142 22.0765 12.8391 22.4976 14.5701 22.3798C16.301 22.2621 17.953 21.6113 19.2992 20.5168C20.6453 19.4223 21.6195 17.9378 22.088 16.2673C22.5565 14.5968 22.4962 12.8223 21.9154 11.1874C21.3347 9.55254 20.2619 8.13763 18.8447 7.13702C17.7145 6.33915 16.4094 5.83589 15.0473 5.66474C14.4719 5.59242 14 5.12911 14 4.54921Z" fill="#2D5FFF"/>
</g>
<defs>
<clipPath id="clip0_1531_375">
<rect width="28" height="28" fill="white"/>
</clipPath>
</defs>
</svg>
