<svg width="80" height="80" viewBox="0 0 80 80" fill="none" xmlns="http://www.w3.org/2000/svg">
<circle cx="40" cy="40" r="16" fill="#46C761"/>
<path d="M40 0C49.5241 1.13574e-07 58.7357 3.39834 65.9779 9.58376C73.2201 15.7692 78.0176 24.3358 79.5075 33.7426C80.9974 43.1495 79.0819 52.7793 74.1056 60.8999C69.1293 69.0206 61.4187 75.0992 52.3607 78.0423L49.5177 69.2925C56.4924 67.0263 62.4295 62.3459 66.2613 56.093C70.0931 49.8401 71.568 42.4251 70.4208 35.1818C69.2736 27.9385 65.5795 21.3423 60.003 16.5795C54.4265 11.8167 47.3336 9.2 40 9.2V0Z" fill="url(#paint0_linear_1937_625)"/>
<path d="M70.7992 39.9992C70.7992 57.0096 57.0096 70.7992 39.9992 70.7992C22.9888 70.7992 9.19922 57.0096 9.19922 39.9992C9.19922 22.9888 22.9888 9.19922 39.9992 9.19922C57.0096 9.19922 70.7992 22.9888 70.7992 39.9992ZM10.3998 39.9992C10.3998 56.3465 23.6519 69.5986 39.9992 69.5986C56.3465 69.5986 69.5986 56.3465 69.5986 39.9992C69.5986 23.6519 56.3465 10.3998 39.9992 10.3998C23.6519 10.3998 10.3998 23.6519 10.3998 39.9992Z" fill="url(#paint1_linear_1937_625)"/>
<path d="M39.9984 10.4004C35.7197 10.4004 31.4918 11.328 27.6061 13.1194C23.7204 14.9107 20.2692 17.5231 17.4904 20.7767C14.7116 24.0303 12.6712 27.8477 11.5098 31.9658C10.3483 36.0838 10.0935 40.4048 10.7629 44.6308C11.4322 48.8569 13.0098 52.8876 15.3869 56.4453C17.7641 60.0029 20.8843 63.0029 24.5325 65.2385C28.1807 67.4742 32.2702 68.8923 36.5193 69.3952C40.7684 69.8981 45.076 69.4739 49.1453 68.1517L45.4866 56.8912C43.045 57.6845 40.4604 57.939 37.911 57.6373C35.3615 57.3355 32.9078 56.4847 30.7189 55.1433C28.5299 53.8019 26.6578 52.0019 25.2315 49.8673C23.8053 47.7327 22.8587 45.3143 22.4571 42.7787C22.0555 40.243 22.2084 37.6505 22.9052 35.1796C23.6021 32.7087 24.8263 30.4183 26.4936 28.4662C28.1609 26.514 30.2316 24.9466 32.563 23.8718C34.8945 22.797 37.4312 22.2404 39.9984 22.2404V10.4004Z" fill="url(#paint2_linear_1937_625)"/>
<defs>
<linearGradient id="paint0_linear_1937_625" x1="40" y1="0" x2="40" y2="80" gradientUnits="userSpaceOnUse">
<stop stop-color="#6E7BE8"/>
<stop offset="1" stop-color="#FB97B9"/>
</linearGradient>
<linearGradient id="paint1_linear_1937_625" x1="66.9492" y1="25.7542" x2="14.3967" y2="55.9767" gradientUnits="userSpaceOnUse">
<stop stop-color="#9B84D9"/>
<stop offset="1" stop-color="#1276F8"/>
</linearGradient>
<linearGradient id="paint2_linear_1937_625" x1="39.9984" y1="10.4004" x2="39.9984" y2="69.6004" gradientUnits="userSpaceOnUse">
<stop stop-color="#20E2D7"/>
<stop offset="1" stop-color="#0F62FE"/>
</linearGradient>
</defs>
</svg>
