<svg width="12" height="12" viewBox="0 0 12 12" fill="none" xmlns="http://www.w3.org/2000/svg">
<path d="M9.75 1.5H2.25C2.05109 1.5 1.86032 1.57902 1.71967 1.71967C1.57902 1.86032 1.5 2.05109 1.5 2.25V9.75C1.5 9.94891 1.57902 10.1397 1.71967 10.2803C1.86032 10.421 2.05109 10.5 2.25 10.5H9.75C9.94891 10.5 10.1397 10.421 10.2803 10.2803C10.421 10.1397 10.5 9.94891 10.5 9.75V2.25C10.5 2.05109 10.421 1.86032 10.2803 1.71967C10.1397 1.57902 9.94891 1.5 9.75 1.5ZM9.24375 7.54078C8.63109 8.06484 8.07656 8.24859 7.57312 8.24859C6.90469 8.24859 6.32531 7.92422 5.81672 7.63922C4.95375 7.15594 4.27219 6.77437 3.24375 7.65375C3.20632 7.68576 3.16296 7.71008 3.11613 7.72534C3.0693 7.74059 3.01993 7.74646 2.97083 7.74263C2.92173 7.7388 2.87387 7.72534 2.82997 7.70301C2.78608 7.68068 2.74701 7.64993 2.715 7.6125C2.68299 7.57507 2.65867 7.53171 2.64342 7.48488C2.62816 7.43805 2.62229 7.38868 2.62612 7.33958C2.62995 7.29048 2.64341 7.24262 2.66574 7.19872C2.68807 7.15483 2.71882 7.11576 2.75625 7.08375C4.18219 5.865 5.29172 6.48562 6.18328 6.98484C7.04625 7.46812 7.73016 7.84969 8.75625 6.97031C8.83184 6.90567 8.93001 6.87369 9.02917 6.88143C9.12833 6.88917 9.22035 6.93598 9.285 7.01156C9.34965 7.08715 9.38162 7.18532 9.37388 7.28448C9.36615 7.38364 9.31934 7.47567 9.24375 7.54031V7.54078ZM9.24375 4.91578C8.63109 5.43984 8.07656 5.62359 7.57312 5.62359C6.90469 5.62359 6.32531 5.29922 5.81672 5.01422C4.95375 4.53094 4.27219 4.14937 3.24375 5.02875C3.16781 5.09001 3.07099 5.11926 2.97384 5.11029C2.87669 5.10132 2.78686 5.05485 2.72342 4.98073C2.65997 4.90661 2.62791 4.81068 2.63404 4.71331C2.64018 4.61594 2.68401 4.5248 2.75625 4.45922C4.18219 3.24047 5.29172 3.86109 6.18328 4.36031C7.04625 4.84359 7.73016 5.22516 8.75625 4.34578C8.79368 4.31377 8.83704 4.28945 8.88387 4.2742C8.9307 4.25895 8.98007 4.25307 9.02917 4.2569C9.07827 4.26073 9.12613 4.27419 9.17003 4.29652C9.21392 4.31885 9.25299 4.3496 9.285 4.38703C9.31701 4.42446 9.34133 4.46782 9.35659 4.51465C9.37184 4.56148 9.37771 4.61085 9.37388 4.65995C9.37005 4.70905 9.35659 4.75691 9.33426 4.80081C9.31193 4.8447 9.28118 4.88377 9.24375 4.91578Z" fill="#8848DB"/>
</svg>
