<svg width="32" height="32" viewBox="0 0 32 32" fill="none" xmlns="http://www.w3.org/2000/svg">
<path d="M25.0006 8V21C25.0007 21.1979 24.9421 21.3914 24.8323 21.556C24.7224 21.7206 24.5662 21.8489 24.3833 21.9246C24.2005 22.0004 23.9993 22.0202 23.8052 21.9815C23.6112 21.9429 23.4329 21.8475 23.2931 21.7075L17.5006 15.9137L8.70806 24.7075C8.52042 24.8951 8.26592 25.0006 8.00056 25.0006C7.73519 25.0006 7.4807 24.8951 7.29306 24.7075C7.10542 24.5199 7 24.2654 7 24C7 23.7346 7.10542 23.4801 7.29306 23.2925L16.0868 14.5L10.2931 8.7075C10.153 8.56765 10.0577 8.38939 10.019 8.19531C9.98038 8.00122 10.0002 7.80003 10.0759 7.61721C10.1517 7.43439 10.28 7.27815 10.4446 7.16828C10.6092 7.05841 10.8027 6.99984 11.0006 7H24.0006C24.2658 7 24.5201 7.10536 24.7077 7.29289C24.8952 7.48043 25.0006 7.73478 25.0006 8Z" fill="#2D5FFF"/>
</svg>
