<svg width="12" height="12" viewBox="0 0 12 12" fill="none" xmlns="http://www.w3.org/2000/svg">
<path d="M9.75 2.625H8.45062L7.81172 1.66688C7.77749 1.61557 7.73113 1.5735 7.67676 1.54439C7.62239 1.51529 7.56167 1.50004 7.5 1.5H4.5C4.43833 1.50004 4.37761 1.51529 4.32324 1.54439C4.26887 1.5735 4.22251 1.61557 4.18828 1.66688L3.54891 2.625H2.25C1.95163 2.625 1.66548 2.74353 1.4545 2.9545C1.24353 3.16548 1.125 3.45163 1.125 3.75V9C1.125 9.29837 1.24353 9.58452 1.4545 9.7955C1.66548 10.0065 1.95163 10.125 2.25 10.125H9.75C10.0484 10.125 10.3345 10.0065 10.5455 9.7955C10.7565 9.58452 10.875 9.29837 10.875 9V3.75C10.875 3.45163 10.7565 3.16548 10.5455 2.9545C10.3345 2.74353 10.0484 2.625 9.75 2.625ZM7.6875 6.1875C7.6875 6.52126 7.58853 6.84752 7.4031 7.12502C7.21768 7.40253 6.95413 7.61882 6.64578 7.74655C6.33743 7.87427 5.99813 7.90769 5.67078 7.84258C5.34344 7.77746 5.04276 7.61674 4.80676 7.38074C4.57076 7.14474 4.41004 6.84406 4.34492 6.51672C4.27981 6.18937 4.31323 5.85007 4.44095 5.54172C4.56868 5.23337 4.78497 4.96982 5.06248 4.78439C5.33998 4.59897 5.66624 4.5 6 4.5C6.44755 4.5 6.87677 4.67779 7.19324 4.99426C7.50971 5.31072 7.6875 5.73995 7.6875 6.1875Z" fill="#FF832B"/>
</svg>
