<svg width="28" height="28" viewBox="0 0 28 28" fill="none" xmlns="http://www.w3.org/2000/svg">
<path d="M14.4375 2.625C11.5377 2.62818 8.75753 3.78155 6.70704 5.83204C4.65655 7.88253 3.50318 10.6627 3.5 13.5625V22.75C3.5 23.2141 3.68437 23.6592 4.01256 23.9874C4.34075 24.3156 4.78587 24.5 5.25 24.5H14.4375C17.3383 24.5 20.1203 23.3477 22.1715 21.2965C24.2227 19.2453 25.375 16.4633 25.375 13.5625C25.375 10.6617 24.2227 7.8797 22.1715 5.82852C20.1203 3.77734 17.3383 2.625 14.4375 2.625ZM17.9375 16.625H10.5C10.2679 16.625 10.0454 16.5328 9.88128 16.3687C9.71719 16.2046 9.625 15.9821 9.625 15.75C9.625 15.5179 9.71719 15.2954 9.88128 15.1313C10.0454 14.9672 10.2679 14.875 10.5 14.875H17.9375C18.1696 14.875 18.3921 14.9672 18.5562 15.1313C18.7203 15.2954 18.8125 15.5179 18.8125 15.75C18.8125 15.9821 18.7203 16.2046 18.5562 16.3687C18.3921 16.5328 18.1696 16.625 17.9375 16.625ZM17.9375 13.125H10.5C10.2679 13.125 10.0454 13.0328 9.88128 12.8687C9.71719 12.7046 9.625 12.4821 9.625 12.25C9.625 12.0179 9.71719 11.7954 9.88128 11.6313C10.0454 11.4672 10.2679 11.375 10.5 11.375H17.9375C18.1696 11.375 18.3921 11.4672 18.5562 11.6313C18.7203 11.7954 18.8125 12.0179 18.8125 12.25C18.8125 12.4821 18.7203 12.7046 18.5562 12.8687C18.3921 13.0328 18.1696 13.125 17.9375 13.125Z" fill="#375DFB"/>
</svg>
