<svg width="28" height="28" viewBox="0 0 28 28" fill="none" xmlns="http://www.w3.org/2000/svg">
<path d="M8.75 4.375C7.88471 4.375 7.03885 4.63159 6.31938 5.11232C5.59992 5.59305 5.03916 6.27634 4.70803 7.07576C4.3769 7.87519 4.29026 8.75485 4.45907 9.60352C4.62788 10.4522 5.04456 11.2317 5.65641 11.8436C6.26826 12.4554 7.04781 12.8721 7.89648 13.0409C8.74515 13.2097 9.62481 13.1231 10.4242 12.792C11.2237 12.4608 11.9069 11.9001 12.3877 11.1806C12.8684 10.4612 13.125 9.61529 13.125 8.75C13.125 7.58968 12.6641 6.47688 11.8436 5.65641C11.0231 4.83594 9.91032 4.375 8.75 4.375ZM8.75 11.375C8.23083 11.375 7.72331 11.221 7.29163 10.9326C6.85995 10.6442 6.5235 10.2342 6.32482 9.75455C6.12614 9.27489 6.07415 8.74709 6.17544 8.23789C6.27673 7.72869 6.52673 7.26096 6.89385 6.89385C7.26096 6.52673 7.72869 6.27673 8.23789 6.17544C8.74709 6.07415 9.27489 6.12614 9.75455 6.32482C10.2342 6.5235 10.6442 6.85995 10.9326 7.29163C11.221 7.72331 11.375 8.23083 11.375 8.75C11.375 9.4462 11.0984 10.1139 10.6062 10.6062C10.1139 11.0984 9.4462 11.375 8.75 11.375ZM19.25 13.125C20.1153 13.125 20.9612 12.8684 21.6806 12.3877C22.4001 11.9069 22.9608 11.2237 23.292 10.4242C23.6231 9.62481 23.7097 8.74515 23.5409 7.89648C23.3721 7.04781 22.9554 6.26826 22.3436 5.65641C21.7317 5.04456 20.9522 4.62788 20.1035 4.45907C19.2549 4.29026 18.3752 4.3769 17.5758 4.70803C16.7763 5.03916 16.0931 5.59992 15.6123 6.31938C15.1316 7.03885 14.875 7.88471 14.875 8.75C14.875 9.91032 15.3359 11.0231 16.1564 11.8436C16.9769 12.6641 18.0897 13.125 19.25 13.125ZM19.25 6.125C19.7692 6.125 20.2767 6.27896 20.7084 6.56739C21.1401 6.85583 21.4765 7.2658 21.6752 7.74546C21.8739 8.22511 21.9258 8.75291 21.8246 9.26211C21.7233 9.77131 21.4733 10.239 21.1062 10.6062C20.739 10.9733 20.2713 11.2233 19.7621 11.3246C19.2529 11.4258 18.7251 11.3739 18.2455 11.1752C17.7658 10.9765 17.3558 10.6401 17.0674 10.2084C16.779 9.77669 16.625 9.26918 16.625 8.75C16.625 8.05381 16.9016 7.38613 17.3938 6.89385C17.8861 6.40156 18.5538 6.125 19.25 6.125ZM8.75 14.875C7.88471 14.875 7.03885 15.1316 6.31938 15.6123C5.59992 16.0931 5.03916 16.7763 4.70803 17.5758C4.3769 18.3752 4.29026 19.2549 4.45907 20.1035C4.62788 20.9522 5.04456 21.7317 5.65641 22.3436C6.26826 22.9554 7.04781 23.3721 7.89648 23.5409C8.74515 23.7097 9.62481 23.6231 10.4242 23.292C11.2237 22.9608 11.9069 22.4001 12.3877 21.6806C12.8684 20.9612 13.125 20.1153 13.125 19.25C13.125 18.0897 12.6641 16.9769 11.8436 16.1564C11.0231 15.3359 9.91032 14.875 8.75 14.875ZM8.75 21.875C8.23083 21.875 7.72331 21.721 7.29163 21.4326C6.85995 21.1442 6.5235 20.7342 6.32482 20.2545C6.12614 19.7749 6.07415 19.2471 6.17544 18.7379C6.27673 18.2287 6.52673 17.761 6.89385 17.3938C7.26096 17.0267 7.72869 16.7767 8.23789 16.6754C8.74709 16.5742 9.27489 16.6261 9.75455 16.8248C10.2342 17.0235 10.6442 17.36 10.9326 17.7916C11.221 18.2233 11.375 18.7308 11.375 19.25C11.375 19.9462 11.0984 20.6139 10.6062 21.1062C10.1139 21.5984 9.4462 21.875 8.75 21.875ZM19.25 14.875C18.3847 14.875 17.5388 15.1316 16.8194 15.6123C16.0999 16.0931 15.5392 16.7763 15.208 17.5758C14.8769 18.3752 14.7903 19.2549 14.9591 20.1035C15.1279 20.9522 15.5446 21.7317 16.1564 22.3436C16.7683 22.9554 17.5478 23.3721 18.3965 23.5409C19.2451 23.7097 20.1248 23.6231 20.9242 23.292C21.7237 22.9608 22.4069 22.4001 22.8877 21.6806C23.3684 20.9612 23.625 20.1153 23.625 19.25C23.625 18.0897 23.1641 16.9769 22.3436 16.1564C21.5231 15.3359 20.4103 14.875 19.25 14.875ZM19.25 21.875C18.7308 21.875 18.2233 21.721 17.7916 21.4326C17.36 21.1442 17.0235 20.7342 16.8248 20.2545C16.6261 19.7749 16.5742 19.2471 16.6754 18.7379C16.7767 18.2287 17.0267 17.761 17.3938 17.3938C17.761 17.0267 18.2287 16.7767 18.7379 16.6754C19.2471 16.5742 19.7749 16.6261 20.2545 16.8248C20.7342 17.0235 21.1442 17.36 21.4326 17.7916C21.721 18.2233 21.875 18.7308 21.875 19.25C21.875 19.9462 21.5984 20.6139 21.1062 21.1062C20.6139 21.5984 19.9462 21.875 19.25 21.875Z" fill="#7B9BFF"/>
</svg>
