<svg width="12" height="12" viewBox="0 0 12 12" fill="none" xmlns="http://www.w3.org/2000/svg">
<path d="M8.15625 2.23818C7.57724 1.56947 6.92557 0.967326 6.21328 0.442864C6.15023 0.398694 6.07511 0.375 5.99813 0.375C5.92114 0.375 5.84602 0.398694 5.78297 0.442864C5.07199 0.967545 4.42159 1.56968 3.84375 2.23818C2.55516 3.71802 1.875 5.27802 1.875 6.7499C1.875 7.84391 2.3096 8.89312 3.08318 9.66671C3.85677 10.4403 4.90598 10.8749 6 10.8749C7.09402 10.8749 8.14323 10.4403 8.91682 9.66671C9.6904 8.89312 10.125 7.84391 10.125 6.7499C10.125 5.27802 9.44484 3.71802 8.15625 2.23818ZM6 1.21864C6.66375 1.73896 8.66531 3.45646 9.22687 5.6249H2.77312C3.33469 3.45739 5.33625 1.73989 6 1.21864Z" fill="#2D5FFF"/>
</svg>
