<svg width="55" height="55" viewBox="0 0 55 55" fill="none" xmlns="http://www.w3.org/2000/svg">
<g filter="url(#filter0_d_1538_1638)">
<rect x="3.10156" y="3.09961" width="44" height="44" rx="22" fill="#E9F0F9" shape-rendering="crispEdges"/>
<rect x="3.60156" y="3.59961" width="43" height="43" rx="21.5" stroke="white" shape-rendering="crispEdges"/>
<path d="M34.1021 17.0996V30.0996C34.1023 30.2975 34.0437 30.491 33.9338 30.6556C33.824 30.8202 33.6677 30.9485 33.4849 31.0242C33.3021 31.1 33.1009 31.1198 32.9068 31.0811C32.7127 31.0425 32.5345 30.9471 32.3946 30.8071L26.6021 25.0134L17.8096 33.8071C17.622 33.9948 17.3675 34.1002 17.1021 34.1002C16.8368 34.1002 16.5823 33.9948 16.3946 33.8071C16.207 33.6195 16.1016 33.365 16.1016 33.0996C16.1016 32.8342 16.207 32.5797 16.3946 32.3921L25.1884 23.5996L19.3946 17.8071C19.2546 17.6673 19.1592 17.489 19.1206 17.2949C19.0819 17.1008 19.1017 16.8996 19.1775 16.7168C19.2532 16.534 19.3815 16.3778 19.5461 16.2679C19.7107 16.158 19.9042 16.0995 20.1021 16.0996H33.1021C33.3673 16.0996 33.6217 16.205 33.8092 16.3925C33.9968 16.58 34.1021 16.8344 34.1021 17.0996Z" fill="#2D5FFF"/>
</g>
<defs>
<filter id="filter0_d_1538_1638" x="0.0015626" y="-0.00039053" width="54.2" height="54.2" filterUnits="userSpaceOnUse" color-interpolation-filters="sRGB">
<feFlood flood-opacity="0" result="BackgroundImageFix"/>
<feColorMatrix in="SourceAlpha" type="matrix" values="0 0 0 0 0 0 0 0 0 0 0 0 0 0 0 0 0 0 127 0" result="hardAlpha"/>
<feOffset dx="2" dy="2"/>
<feGaussianBlur stdDeviation="2.55"/>
<feComposite in2="hardAlpha" operator="out"/>
<feColorMatrix type="matrix" values="0 0 0 0 0.176471 0 0 0 0 0.372549 0 0 0 0 1 0 0 0 0.25 0"/>
<feBlend mode="normal" in2="BackgroundImageFix" result="effect1_dropShadow_1538_1638"/>
<feBlend mode="normal" in="SourceGraphic" in2="effect1_dropShadow_1538_1638" result="shape"/>
</filter>
</defs>
</svg>
