<svg width="28" height="28" viewBox="0 0 28 28" fill="none" xmlns="http://www.w3.org/2000/svg">
<path d="M17.9871 21.3977C18.0732 21.5298 18.122 21.6826 18.1284 21.8401C18.1349 21.9976 18.0986 22.1538 18.0236 22.2924C17.9485 22.431 17.8374 22.5468 17.702 22.6274C17.5666 22.7081 17.4119 22.7507 17.2543 22.7507H1.11708C0.959467 22.7507 0.804784 22.7081 0.669376 22.6274C0.533968 22.5468 0.422862 22.431 0.347796 22.2924C0.272731 22.1538 0.236494 21.9976 0.242914 21.8401C0.249333 21.6826 0.298172 21.5298 0.384268 21.3977C1.61595 19.5019 3.42762 18.0551 5.54896 17.2732C4.37623 16.4925 3.48589 15.3551 3.00959 14.0292C2.53329 12.7033 2.49632 11.2594 2.90415 9.91085C3.31197 8.56234 4.14294 7.38086 5.27417 6.54115C6.40541 5.70143 7.77684 5.24805 9.18567 5.24805C10.5945 5.24805 11.9659 5.70143 13.0972 6.54115C14.2284 7.38086 15.0594 8.56234 15.4672 9.91085C15.875 11.2594 15.8381 12.7033 15.3618 14.0292C14.8855 15.3551 13.9951 16.4925 12.8224 17.2732C14.9437 18.0551 16.7554 19.5019 17.9871 21.3977ZM27.6022 21.3813C26.3702 19.4934 24.5626 18.0529 22.4474 17.2732C23.8318 16.3406 24.8089 14.9155 25.1796 13.288C25.5504 11.6604 25.287 9.95272 24.4431 8.51252C23.5991 7.07232 22.2381 6.00785 20.637 5.53577C19.0359 5.0637 17.315 5.21951 15.8247 5.97149C15.7677 6.00091 15.7179 6.04251 15.6788 6.09332C15.6397 6.14414 15.6122 6.20294 15.5983 6.26555C15.5844 6.32816 15.5845 6.39306 15.5985 6.45565C15.6125 6.51824 15.6401 6.57699 15.6793 6.62774C16.7874 8.01003 17.4238 9.71085 17.4953 11.4811C17.5667 13.2513 17.0695 14.9978 16.0763 16.4649C16.0121 16.5608 15.9884 16.6782 16.0103 16.7914C16.0322 16.9047 16.098 17.0048 16.1933 17.0698C17.4882 17.9735 18.5967 19.1184 19.4582 20.4418C19.8056 20.9739 19.9475 21.6142 19.8574 22.2432C19.8472 22.3058 19.8508 22.3698 19.8679 22.4309C19.8849 22.4919 19.915 22.5485 19.9561 22.5968C19.9972 22.6451 20.0483 22.6838 20.1058 22.7104C20.1634 22.737 20.226 22.7507 20.2894 22.7507H26.8847C27.0774 22.7508 27.2647 22.6872 27.4176 22.57C27.5705 22.4527 27.6803 22.2882 27.7302 22.1021C27.7606 21.9797 27.7649 21.8523 27.7429 21.7281C27.7209 21.6039 27.6729 21.4858 27.6022 21.3813Z" fill="#375DFB"/>
</svg>
